<?xml version="1.0" encoding="UTF-8" standalone="no"?>
<!DOCTYPE svg PUBLIC "-//W3C//DTD SVG 1.1//EN"
 "http://www.w3.org/Graphics/SVG/1.1/DTD/svg11.dtd">
<!-- Generated by graphviz version 14.0.4 (0)
 -->
<!-- Title: module Pages: 1 -->
<svg width="444pt" height="281pt"
 viewBox="0.00 0.00 444.00 281.00" xmlns="http://www.w3.org/2000/svg" xmlns:xlink="http://www.w3.org/1999/xlink">
<g id="graph0" class="graph" transform="scale(1 1) rotate(0) translate(4 277)">
<title>module</title>
<g id="clust1" class="cluster">
<title>cluster_outputs</title>
</g>
<g id="clust2" class="cluster">
<title>cluster_rpcs</title>
<polygon fill="#7986cb" fill-opacity="0.062745" stroke="#7986cb" stroke-dasharray="5,2" points="255.25,-79 255.25,-180 344.9,-180 344.9,-79 255.25,-79"/>
<text xml:space="preserve" text-anchor="middle" x="279.75" y="-162.7" font-family="fixed" font-size="14.00" fill="#b5e4f4">RPCs</text>
</g>
<g id="clust3" class="cluster">
<title>cluster_skills</title>
<polygon fill="#4ecdc4" fill-opacity="0.125490" stroke="#4ecdc4" stroke-dasharray="5,2" points="172,-8 172,-71 428.15,-71 428.15,-8 172,-8"/>
<text xml:space="preserve" text-anchor="middle" x="196.5" y="-53.7" font-family="fixed" font-size="14.00" fill="#b5e4f4">Skills</text>
</g>
<!-- CameraModule -->
<g id="node1" class="node">
<title>CameraModule</title>
<polygon fill="#0b0f0f" stroke="#5c9ff0" points="144,-125.8 0,-125.8 0,-68.2 144,-68.2 144,-125.8"/>
<text xml:space="preserve" text-anchor="middle" x="72" y="-94.22" font-family="fixed" font-size="12.00" fill="#b5e4f4">CameraModule</text>
</g>
<!-- out_color_image -->
<g id="node2" class="node">
<title>out_color_image</title>
<polygon fill="#95e1d3" fill-opacity="0.207843" stroke="#95e1d3" points="348.32,-217.72 248.25,-217.72 248.25,-196.28 351.9,-196.28 351.9,-214.15 348.32,-217.72"/>
<polyline fill="none" stroke="#95e1d3" points="348.32,-217.72 348.32,-214.15"/>
<polyline fill="none" stroke="#95e1d3" points="351.9,-214.15 348.32,-214.15"/>
<text xml:space="preserve" text-anchor="middle" x="300.07" y="-204.62" font-family="fixed" font-size="10.00" fill="#b5e4f4">color_image:Image</text>
</g>
<!-- CameraModule&#45;&gt;out_color_image -->
<g id="edge1" class="edge">
<title>CameraModule&#45;&gt;out_color_image</title>
<path fill="none" stroke="#95e1d3" d="M98.19,-126.24C116.64,-145.71 143.36,-170.17 172,-184 191.94,-193.63 215.4,-199.25 236.7,-202.53"/>
<polygon fill="#95e1d3" stroke="#95e1d3" points="236.07,-205.97 246.45,-203.87 237.02,-199.04 236.07,-205.97"/>
</g>
<!-- out_camera_info -->
<g id="node3" class="node">
<title>out_camera_info</title>
<polygon fill="#ffe66d" fill-opacity="0.207843" stroke="#ffe66d" points="360.7,-256.73 235.88,-256.73 235.88,-235.28 364.27,-235.28 364.27,-253.15 360.7,-256.73"/>
<polyline fill="none" stroke="#ffe66d" points="360.7,-256.73 360.7,-253.15"/>
<polyline fill="none" stroke="#ffe66d" points="364.27,-253.15 360.7,-253.15"/>
<text xml:space="preserve" text-anchor="middle" x="300.07" y="-243.62" font-family="fixed" font-size="10.00" fill="#b5e4f4">camera_info:CameraInfo</text>
</g>
<!-- CameraModule&#45;&gt;out_camera_info -->
<g id="edge2" class="edge">
<title>CameraModule&#45;&gt;out_camera_info</title>
<path fill="none" stroke="#ffe66d" d="M86.65,-126.12C102.59,-156.62 131.96,-203.31 172,-227 187.59,-236.22 206.07,-241.5 224.04,-244.42"/>
<polygon fill="#ffe66d" stroke="#ffe66d" points="223.55,-247.89 233.94,-245.77 224.5,-240.95 223.55,-247.89"/>
</g>
<!-- rpc_start -->
<g id="node4" class="node">
<title>rpc_start</title>
<polygon fill="#7986cb" fill-opacity="0.207843" stroke="#7986cb" points="325.38,-103.65 268.12,-103.65 268.12,-90.35 325.38,-90.35 332.02,-97 325.38,-103.65"/>
<text xml:space="preserve" text-anchor="middle" x="300.07" y="-94.83" font-family="fixed" font-size="9.00" fill="#b5e4f4">start() &#45;&gt; str</text>
</g>
<!-- CameraModule&#45;&gt;rpc_start -->
<g id="edge3" class="edge">
<title>CameraModule&#45;&gt;rpc_start</title>
<path fill="none" stroke="#7986cb" d="M144.22,-97C180.62,-97 223.76,-97 255.25,-97"/>
</g>
<!-- skill_video_stream -->
<g id="node6" class="node">
<title>skill_video_stream</title>
<polygon fill="#4ecdc4" fill-opacity="0.207843" stroke="#4ecdc4" points="413.5,-32.65 180,-32.65 180,-19.35 413.5,-19.35 420.15,-26 413.5,-32.65"/>
<text xml:space="preserve" text-anchor="middle" x="300.07" y="-23.82" font-family="fixed" font-size="9.00" fill="#b5e4f4">video_stream stream=passive reducer=latest_reducer</text>
</g>
<!-- CameraModule&#45;&gt;skill_video_stream -->
<g id="edge4" class="edge">
<title>CameraModule&#45;&gt;skill_video_stream</title>
<path fill="none" stroke="#4ecdc4" d="M144.22,-74.63C153.17,-71.82 162.52,-68.89 172,-65.91"/>
</g>
<!-- rpc_stop -->
<g id="node5" class="node">
<title>rpc_stop</title>
<polygon fill="#7986cb" fill-opacity="0.207843" stroke="#7986cb" points="330.25,-141.65 263.25,-141.65 263.25,-128.35 330.25,-128.35 336.9,-135 330.25,-141.65"/>
<text xml:space="preserve" text-anchor="middle" x="300.07" y="-132.82" font-family="fixed" font-size="9.00" fill="#b5e4f4">stop() &#45;&gt; None</text>
</g>
</g>
</svg>
