<?xml version="1.0" encoding="UTF-8" standalone="no"?>
<!DOCTYPE svg PUBLIC "-//W3C//DTD SVG 1.1//EN"
 "http://www.w3.org/Graphics/SVG/1.1/DTD/svg11.dtd">
<!-- Generated by graphviz version 14.0.4 (0)
 -->
<!-- Title: module Pages: 1 -->
<svg width="490pt" height="327pt"
 viewBox="0.00 0.00 490.00 327.00" xmlns="http://www.w3.org/2000/svg" xmlns:xlink="http://www.w3.org/1999/xlink">
<g id="graph0" class="graph" transform="scale(1 1) rotate(0) translate(4 323)">
<title>module</title>
<g id="clust1" class="cluster">
<title>cluster_inputs</title>
</g>
<g id="clust2" class="cluster">
<title>cluster_outputs</title>
</g>
<g id="clust3" class="cluster">
<title>cluster_rpcs</title>
<polygon fill="#7986cb" fill-opacity="0.062745" stroke="#7986cb" stroke-dasharray="5,2" points="341.52,-8 341.52,-109 432.67,-109 432.67,-8 341.52,-8"/>
<text xml:space="preserve" text-anchor="middle" x="366.02" y="-91.7" font-family="fixed" font-size="14.00" fill="#b5e4f4">RPCs</text>
</g>
<!-- Detection2DModule -->
<g id="node1" class="node">
<title>Detection2DModule</title>
<polygon fill="#0b0f0f" stroke="#5c9ff0" points="271.9,-183.8 127.9,-183.8 127.9,-126.2 271.9,-126.2 271.9,-183.8"/>
<text xml:space="preserve" text-anchor="middle" x="199.9" y="-152.22" font-family="fixed" font-size="12.00" fill="#b5e4f4">Detection2DModule</text>
</g>
<!-- out_detections -->
<g id="node3" class="node">
<title>out_detections</title>
<polygon fill="#ff8a65" fill-opacity="0.207843" stroke="#ff8a65" points="458.6,-146.72 312.02,-146.72 312.02,-125.28 462.17,-125.28 462.17,-143.15 458.6,-146.72"/>
<polyline fill="none" stroke="#ff8a65" points="458.6,-146.72 458.6,-143.15"/>
<polyline fill="none" stroke="#ff8a65" points="462.17,-143.15 458.6,-143.15"/>
<text xml:space="preserve" text-anchor="middle" x="387.1" y="-133.62" font-family="fixed" font-size="10.00" fill="#b5e4f4">detections:Detection2DArray</text>
</g>
<!-- Detection2DModule&#45;&gt;out_detections -->
<g id="edge2" class="edge">
<title>Detection2DModule&#45;&gt;out_detections</title>
<path fill="none" stroke="#ff8a65" d="M272.24,-147.68C281.44,-146.74 290.93,-145.76 300.34,-144.8"/>
<polygon fill="#ff8a65" stroke="#ff8a65" points="300.64,-148.29 310.23,-143.78 299.92,-141.32 300.64,-148.29"/>
</g>
<!-- out_annotations -->
<g id="node4" class="node">
<title>out_annotations</title>
<polygon fill="#4dd0e1" fill-opacity="0.207843" stroke="#4dd0e1" points="462.72,-185.72 307.9,-185.72 307.9,-164.28 466.3,-164.28 466.3,-182.15 462.72,-185.72"/>
<polyline fill="none" stroke="#4dd0e1" points="462.72,-185.72 462.72,-182.15"/>
<polyline fill="none" stroke="#4dd0e1" points="466.3,-182.15 462.72,-182.15"/>
<text xml:space="preserve" text-anchor="middle" x="387.1" y="-172.62" font-family="fixed" font-size="10.00" fill="#b5e4f4">annotations:ImageAnnotations</text>
</g>
<!-- Detection2DModule&#45;&gt;out_annotations -->
<g id="edge3" class="edge">
<title>Detection2DModule&#45;&gt;out_annotations</title>
<path fill="none" stroke="#4dd0e1" d="M272.24,-162.7C280.06,-163.55 288.1,-164.42 296.12,-165.28"/>
<polygon fill="#4dd0e1" stroke="#4dd0e1" points="295.58,-168.75 305.9,-166.34 296.34,-161.79 295.58,-168.75"/>
</g>
<!-- out_detected_image_0 -->
<g id="node5" class="node">
<title>out_detected_image_0</title>
<polygon fill="#4ecdc4" fill-opacity="0.207843" stroke="#4ecdc4" points="449.97,-224.72 320.65,-224.72 320.65,-203.28 453.55,-203.28 453.55,-221.15 449.97,-224.72"/>
<polyline fill="none" stroke="#4ecdc4" points="449.97,-224.72 449.97,-221.15"/>
<polyline fill="none" stroke="#4ecdc4" points="453.55,-221.15 449.97,-221.15"/>
<text xml:space="preserve" text-anchor="middle" x="387.1" y="-211.62" font-family="fixed" font-size="10.00" fill="#b5e4f4">detected_image_0:Image</text>
</g>
<!-- Detection2DModule&#45;&gt;out_detected_image_0 -->
<g id="edge4" class="edge">
<title>Detection2DModule&#45;&gt;out_detected_image_0</title>
<path fill="none" stroke="#4ecdc4" d="M269.07,-184.26C279.3,-188.16 289.81,-191.87 299.9,-195 305.76,-196.81 311.89,-198.53 318.06,-200.12"/>
<polygon fill="#4ecdc4" stroke="#4ecdc4" points="317.16,-203.5 327.71,-202.5 318.84,-196.71 317.16,-203.5"/>
</g>
<!-- out_detected_image_1 -->
<g id="node6" class="node">
<title>out_detected_image_1</title>
<polygon fill="#81c784" fill-opacity="0.207843" stroke="#81c784" points="449.97,-263.73 320.65,-263.73 320.65,-242.28 453.55,-242.28 453.55,-260.15 449.97,-263.73"/>
<polyline fill="none" stroke="#81c784" points="449.97,-263.73 449.97,-260.15"/>
<polyline fill="none" stroke="#81c784" points="453.55,-260.15 449.97,-260.15"/>
<text xml:space="preserve" text-anchor="middle" x="387.1" y="-250.62" font-family="fixed" font-size="10.00" fill="#b5e4f4">detected_image_1:Image</text>
</g>
<!-- Detection2DModule&#45;&gt;out_detected_image_1 -->
<g id="edge5" class="edge">
<title>Detection2DModule&#45;&gt;out_detected_image_1</title>
<path fill="none" stroke="#81c784" d="M230.07,-184.24C248.59,-201.2 273.9,-221.59 299.9,-234 303.05,-235.5 306.32,-236.89 309.66,-238.17"/>
<polygon fill="#81c784" stroke="#81c784" points="308.52,-241.47 319.12,-241.4 310.79,-234.85 308.52,-241.47"/>
</g>
<!-- out_detected_image_2 -->
<g id="node7" class="node">
<title>out_detected_image_2</title>
<polygon fill="#f06292" fill-opacity="0.207843" stroke="#f06292" points="449.97,-302.73 320.65,-302.73 320.65,-281.27 453.55,-281.27 453.55,-299.15 449.97,-302.73"/>
<polyline fill="none" stroke="#f06292" points="449.97,-302.73 449.97,-299.15"/>
<polyline fill="none" stroke="#f06292" points="453.55,-299.15 449.97,-299.15"/>
<text xml:space="preserve" text-anchor="middle" x="387.1" y="-289.62" font-family="fixed" font-size="10.00" fill="#b5e4f4">detected_image_2:Image</text>
</g>
<!-- Detection2DModule&#45;&gt;out_detected_image_2 -->
<g id="edge6" class="edge">
<title>Detection2DModule&#45;&gt;out_detected_image_2</title>
<path fill="none" stroke="#f06292" d="M217.59,-184.27C234.71,-211.54 263.88,-251.17 299.9,-273 303.05,-274.91 306.36,-276.62 309.78,-278.17"/>
<polygon fill="#f06292" stroke="#f06292" points="308.32,-281.35 318.9,-281.75 310.88,-274.84 308.32,-281.35"/>
</g>
<!-- rpc_start -->
<g id="node8" class="node">
<title>rpc_start</title>
<polygon fill="#7986cb" fill-opacity="0.207843" stroke="#7986cb" points="418.02,-32.65 349.52,-32.65 349.52,-19.35 418.02,-19.35 424.67,-26 418.02,-32.65"/>
<text xml:space="preserve" text-anchor="middle" x="387.1" y="-23.82" font-family="fixed" font-size="9.00" fill="#b5e4f4">start() &#45;&gt; None</text>
</g>
<!-- Detection2DModule&#45;&gt;rpc_start -->
<g id="edge7" class="edge">
<title>Detection2DModule&#45;&gt;rpc_start</title>
<path fill="none" stroke="#7986cb" d="M219.24,-126.01C236.83,-100.68 265.71,-64.92 299.9,-45 312.45,-37.69 327.52,-33.19 341.53,-30.42"/>
</g>
<!-- in_image -->
<g id="node2" class="node">
<title>in_image</title>
<polygon fill="#aed581" fill-opacity="0.207843" stroke="#aed581" points="88.32,-165.72 16,-165.72 16,-144.28 91.9,-144.28 91.9,-162.15 88.32,-165.72"/>
<polyline fill="none" stroke="#aed581" points="88.32,-165.72 88.32,-162.15"/>
<polyline fill="none" stroke="#aed581" points="91.9,-162.15 88.32,-162.15"/>
<text xml:space="preserve" text-anchor="middle" x="53.95" y="-152.62" font-family="fixed" font-size="10.00" fill="#b5e4f4">image:Image</text>
</g>
<!-- in_image&#45;&gt;Detection2DModule -->
<g id="edge1" class="edge">
<title>in_image&#45;&gt;Detection2DModule</title>
<path fill="none" stroke="#aed581" d="M92.4,-155C99.84,-155 107.93,-155 116.22,-155"/>
<polygon fill="#aed581" stroke="#aed581" points="116.08,-158.5 126.08,-155 116.08,-151.5 116.08,-158.5"/>
</g>
<!-- rpc_stop -->
<g id="node9" class="node">
<title>rpc_stop</title>
<polygon fill="#7986cb" fill-opacity="0.207843" stroke="#7986cb" points="417.27,-70.65 350.27,-70.65 350.27,-57.35 417.27,-57.35 423.92,-64 417.27,-70.65"/>
<text xml:space="preserve" text-anchor="middle" x="387.1" y="-61.83" font-family="fixed" font-size="9.00" fill="#b5e4f4">stop() &#45;&gt; None</text>
</g>
</g>
</svg>
